<svg xmlns="http://www.w3.org/2000/svg" viewBox="0 0 201.88 201.88"><title>fav icon</title><g id="Layer_2" data-name="Layer 2"><g id="Layer_1-2" data-name="Layer 1"><rect width="201.88" height="201.88" rx="40" fill="#fff"/><path d="M77.3,64.59l-7.82,7.82,7.82,7.82,7.82-7.82Z" fill="#00864b"/><polygon points="93.16 80.44 85.12 88.48 77.3 96.3 53.65 119.94 14.15 80.44 53.65 40.94 77.3 64.59 69.48 72.41 53.65 56.59 29.8 80.44 53.65 104.3 69.47 88.48 77.3 80.66 77.51 80.44 77.3 80.23 85.12 72.41 93.16 80.44" fill="#00864b"/><path d="M124.59,64.59,100.94,40.94,77.3,64.59l-7.82,7.82-8,8,8,8,7.83-7.82-.21-.22.21-.21,7.82-7.82,15.82-15.82,15.83,15.82,7.82,7.82,7.82-7.82Z" fill="#8b95a3"/><polygon points="140.44 80.44 132.41 88.48 124.59 96.3 100.94 119.94 77.3 96.3 85.12 88.48 100.94 104.3 116.76 88.48 124.59 80.66 124.8 80.44 124.59 80.23 132.41 72.41 140.44 80.44" fill="#8b95a3"/><path d="M148.23,40.94,124.59,64.59l-7.82,7.82-8,8,8,8,7.83-7.82-.22-.22.22-.21,7.82-7.82,15.82-15.82,23.86,23.85L148.23,104.3,132.41,88.48l-7.82,7.82,23.64,23.64,39.5-39.5Z" fill="#0059a1"/><path d="M42.13,162.3c-10.05,0-17.08-5.83-17.08-16.1,0-10.1,7-16.11,17.08-16.11S59.2,136,59.2,146.2,52.22,162.3,42.13,162.3Zm0-24.79c-5,0-8.39,3.6-8.39,8.69s3.47,8.69,8.39,8.69c5.09,0,8.38-3.6,8.38-8.69C50.51,140.93,47.22,137.51,42.13,137.51Z" fill="#004472"/><path d="M63.72,161.56V130.84H87.29v7.28h-15v5.75H86.37V151H72.32v10.58Z" fill="#004472"/><path d="M100.55,153.26v8.3H91.86V130.84h14.92c8.25,0,12.33,5.18,12.33,11.19,0,6.27-4.13,11.14-12.33,11.23Zm0-7.33h6.23a3.5,3.5,0,0,0,3.64-3.77,3.6,3.6,0,0,0-3.64-3.86h-6.23Z" fill="#004472"/><path d="M131.66,153.26v8.3H123V130.84H137.9c8.25,0,12.33,5.18,12.33,11.19,0,6.27-4.13,11.14-12.33,11.23Zm0-7.33h6.24a3.5,3.5,0,0,0,3.64-3.77,3.6,3.6,0,0,0-3.64-3.86h-6.24Z" fill="#004472"/><path d="M160.59,138h-9v-7.15h26.59V138h-9v23.57h-8.64Z" fill="#004472"/></g></g></svg>