<svg xmlns="http://www.w3.org/2000/svg" version="1.1" xmlns:xlink="http://www.w3.org/1999/xlink" xmlns:svgjs="http://svgjs.com/svgjs" width="1000" height="1000"><rect width="1000" height="1000" rx="200" ry="200" fill="#05086b"></rect><g transform="matrix(4.608825901601566,0,0,4.608825901601566,99.99999669602124,220.3364431894907)"><svg xmlns="http://www.w3.org/2000/svg" version="1.1" xmlns:xlink="http://www.w3.org/1999/xlink" xmlns:svgjs="http://svgjs.com/svgjs" width="173.58" height="121.36"><svg xmlns="http://www.w3.org/2000/svg" viewBox="0 0 173.58 121.36"><defs><style>.cls-1{fill:#00864b;}.cls-2{fill:#8b95a3;}.cls-3{fill:#0059a1;}</style></defs><title>Asset 6</title><g id="Layer_2" data-name="Layer 2"><g id="Layer_1-2" data-name="Layer 1"><path class="cls-1" d="M63.15,23.64l-7.82,7.83,7.82,7.82L71,31.47Z"></path><polygon class="cls-1" points="79 39.5 70.97 47.53 63.15 55.36 39.5 79 0 39.5 39.5 0 63.15 23.64 55.33 31.47 39.5 15.64 15.64 39.5 39.5 63.36 55.32 47.53 63.15 39.71 63.36 39.5 63.15 39.29 70.97 31.47 79 39.5"></polygon><path class="cls-2" d="M110.43,23.64,86.79,0,63.15,23.64l-7.82,7.83-8,8,8,8,7.83-7.82-.22-.21.22-.21L71,31.47,86.79,15.64l15.82,15.83,7.82,7.82,7.83-7.82Z"></path><polygon class="cls-2" points="126.29 39.5 118.26 47.53 110.44 55.36 86.79 79 63.15 55.36 70.97 47.53 86.79 63.36 102.61 47.53 110.44 39.71 110.65 39.5 110.44 39.29 118.26 31.47 126.29 39.5"></polygon><path class="cls-3" d="M134.08,0,110.43,23.64l-7.82,7.83-8,8,8,8,7.82-7.82-.21-.21.21-.21,7.83-7.82,15.82-15.83L157.94,39.5,134.08,63.36,118.26,47.53l-7.83,7.83L134.08,79l39.5-39.5Z"></path><path class="cls-2" d="M28,121.36c-10,0-17.07-5.84-17.07-16.11,0-10.09,7-16.1,17.07-16.1S45,95,45,105.25,38.07,121.36,28,121.36Zm0-24.8c-5,0-8.38,3.6-8.38,8.69s3.47,8.69,8.38,8.69c5.09,0,8.38-3.6,8.38-8.69C36.35,100,33.06,96.56,28,96.56Z"></path><path class="cls-2" d="M49.57,120.61V89.89H73.14v7.29h-15v5.75h14V110h-14v10.57Z"></path><path class="cls-2" d="M86.39,112.32v8.29H77.7V89.89H92.62c8.26,0,12.34,5.18,12.34,11.19,0,6.28-4.13,11.15-12.34,11.24Zm0-7.33h6.23a3.51,3.51,0,0,0,3.65-3.77,3.62,3.62,0,0,0-3.65-3.87H86.39Z"></path><path class="cls-2" d="M117.51,112.32v8.29h-8.69V89.89h14.92c8.25,0,12.34,5.18,12.34,11.19,0,6.28-4.13,11.15-12.34,11.24Zm0-7.33h6.23a3.51,3.51,0,0,0,3.65-3.77,3.62,3.62,0,0,0-3.65-3.87h-6.23Z"></path><path class="cls-2" d="M146.44,97.05h-9V89.89h26.6v7.16h-9v23.56h-8.64Z"></path></g></g></svg></svg></g></svg>