<svg width="19" height="19" viewBox="0 0 19 19" fill="none" xmlns="http://www.w3.org/2000/svg">
<g id="grid-alt">
<g id="Group">
<path id="Vector" d="M6.42207 1.69238H2.8502C1.89395 1.69238 1.10645 2.47988 1.10645 3.43613V7.00801C1.10645 7.96426 1.89395 8.75176 2.8502 8.75176H6.42207C7.37832 8.75176 8.16582 7.96426 8.16582 7.00801V3.46426C8.19395 2.47988 7.40645 1.69238 6.42207 1.69238ZM6.92832 7.03613C6.92832 7.31738 6.70332 7.54238 6.42207 7.54238H2.8502C2.56895 7.54238 2.34395 7.31738 2.34395 7.03613V3.46426C2.34395 3.18301 2.56895 2.95801 2.8502 2.95801H6.42207C6.70332 2.95801 6.92832 3.18301 6.92832 3.46426V7.03613Z" fill="white"/>
<path id="Vector_2" d="M15.7877 1.69238H12.2158C11.2595 1.69238 10.472 2.47988 10.472 3.43613V7.00801C10.472 7.96426 11.2595 8.75176 12.2158 8.75176H15.7877C16.7439 8.75176 17.5314 7.96426 17.5314 7.00801V3.46426C17.5314 2.47988 16.7439 1.69238 15.7877 1.69238ZM16.2939 7.03613C16.2939 7.31738 16.0689 7.54238 15.7877 7.54238H12.2158C11.9345 7.54238 11.7095 7.31738 11.7095 7.03613V3.46426C11.7095 3.18301 11.9345 2.95801 12.2158 2.95801H15.7877C16.0689 2.95801 16.2939 3.18301 16.2939 3.46426V7.03613Z" fill="white"/>
<path id="Vector_3" d="M6.42207 10.6642H2.8502C1.89395 10.6642 1.10645 11.4517 1.10645 12.408V15.9799C1.10645 16.9361 1.89395 17.7236 2.8502 17.7236H6.42207C7.37832 17.7236 8.16582 16.9361 8.16582 15.9799V12.4361C8.19395 11.4517 7.40645 10.6642 6.42207 10.6642ZM6.92832 16.008C6.92832 16.2892 6.70332 16.5142 6.42207 16.5142H2.8502C2.56895 16.5142 2.34395 16.2892 2.34395 16.008V12.4361C2.34395 12.1549 2.56895 11.9299 2.8502 11.9299H6.42207C6.70332 11.9299 6.92832 12.1549 6.92832 12.4361V16.008Z" fill="white"/>
<path id="Vector_4" d="M15.7877 10.6642H12.2158C11.2595 10.6642 10.472 11.4517 10.472 12.408V15.9799C10.472 16.9361 11.2595 17.7236 12.2158 17.7236H15.7877C16.7439 17.7236 17.5314 16.9361 17.5314 15.9799V12.4361C17.5314 11.4517 16.7439 10.6642 15.7877 10.6642ZM16.2939 16.008C16.2939 16.2892 16.0689 16.5142 15.7877 16.5142H12.2158C11.9345 16.5142 11.7095 16.2892 11.7095 16.008V12.4361C11.7095 12.1549 11.9345 11.9299 12.2158 11.9299H15.7877C16.0689 11.9299 16.2939 12.1549 16.2939 12.4361V16.008Z" fill="white"/>
</g>
</g>
</svg>
