<svg width="32" height="31" viewBox="0 0 32 31" fill="none" xmlns="http://www.w3.org/2000/svg">
<g id="3669259_ic_restore_icon 1">
<path id="Vector" d="M17.4982 4.25C10.9424 4.25 5.64511 9.2875 5.64511 15.5H1.69189L6.82449 20.3688L6.91673 20.55L12.2338 15.5H8.28059C8.28059 10.6687 12.4117 6.75 17.5048 6.75C22.5978 6.75 26.729 10.6687 26.729 15.5C26.729 20.3312 22.5978 24.25 17.5048 24.25C14.9549 24.25 12.6555 23.2625 10.9886 21.6812L9.12395 23.45C11.2653 25.4875 14.2236 26.75 17.4982 26.75C24.0539 26.75 29.3644 21.7125 29.3644 15.5C29.3644 9.2875 24.0539 4.25 17.4982 4.25ZM16.187 10.5V16.75L21.827 19.925L22.7757 18.4062L18.1636 15.8125V10.5H16.187Z" fill="#64748B"/>
</g>
</svg>
