<svg width="19" height="19" viewBox="0 0 19 19" fill="none" xmlns="http://www.w3.org/2000/svg">
<g id="page" clip-path="url(#clip0_141_487)">
<g id="Group">
<path id="Vector" d="M14.6065 1.2424H4.03147C3.07522 1.2424 2.28772 2.0299 2.28772 2.98615V16.4862C2.28772 17.4424 3.07522 18.258 4.05959 18.258H14.6346C15.5908 18.258 16.4065 17.4705 16.4065 16.4862V2.98615C16.3502 2.0299 15.5627 1.2424 14.6065 1.2424ZM15.0846 16.4862C15.0846 16.7674 14.8596 16.9924 14.5783 16.9924H4.03147C3.75022 16.9924 3.52522 16.7674 3.52522 16.4862V2.98615C3.52522 2.7049 3.75022 2.4799 4.03147 2.4799H14.6065C14.8877 2.4799 15.1127 2.7049 15.1127 2.98615V16.4862H15.0846Z" fill="#04060D"/>
<path id="Vector_2" d="M13.1158 3.35178H10.0502C9.54395 3.35178 9.12207 3.77365 9.12207 4.2799V7.9924C9.12207 8.49865 9.54395 8.92053 10.0502 8.92053H13.1158C13.6221 8.92053 14.0439 8.49865 14.0439 7.9924V4.25178C14.0158 3.77365 13.6221 3.35178 13.1158 3.35178ZM12.7502 7.62678H10.3877V4.6174H12.7502V7.62678Z" fill="#04060D"/>
<path id="Vector_3" d="M5.29707 5.09552H7.35019C7.6877 5.09552 7.99707 4.81427 7.99707 4.44864C7.99707 4.08302 7.71582 3.8299 7.35019 3.8299H5.26895C4.93145 3.8299 4.62207 4.11115 4.62207 4.47677C4.62207 4.8424 4.93145 5.09552 5.29707 5.09552Z" fill="#04060D"/>
<path id="Vector_4" d="M5.29707 8.66741H7.35019C7.6877 8.66741 7.99707 8.38616 7.99707 8.02053C7.99707 7.65491 7.71582 7.37366 7.35019 7.37366H5.26895C4.93145 7.37366 4.62207 7.65491 4.62207 8.02053C4.62207 8.38616 4.93145 8.66741 5.29707 8.66741Z" fill="#04060D"/>
<path id="Vector_5" d="M13.3971 10.9736H5.29708C4.95958 10.9736 4.65021 11.2549 4.65021 11.6205C4.65021 11.9861 4.93146 12.2674 5.29708 12.2674H13.3971C13.7346 12.2674 14.044 11.9861 14.044 11.6205C14.044 11.2549 13.7346 10.9736 13.3971 10.9736Z" fill="#04060D"/>
<path id="Vector_6" d="M13.3971 14.5455H5.29708C4.95958 14.5455 4.65021 14.8268 4.65021 15.1924C4.65021 15.558 4.93146 15.8393 5.29708 15.8393H13.3971C13.7346 15.8393 14.044 15.558 14.044 15.1924C14.044 14.8268 13.7346 14.5455 13.3971 14.5455Z" fill="#04060D"/>
</g>
</g>
<defs>
<clipPath id="clip0_141_487">
<rect width="18" height="18" fill="white" transform="translate(0.31897 0.736145)"/>
</clipPath>
</defs>
</svg>
