<svg width="13" height="12" viewBox="0 0 13 12" fill="none" xmlns="http://www.w3.org/2000/svg">
<path id="Vector" d="M11.8399 0.500687C11.6311 0.508111 11.4395 0.619474 11.329 0.797655L5.41342 9.91457L1.58109 6.57863C1.4165 6.40663 1.16961 6.34229 0.942368 6.41406C0.716359 6.48459 0.548081 6.67762 0.508775 6.91272C0.469469 7.14905 0.564049 7.38663 0.755665 7.52893L5.13828 11.3499C5.27585 11.4675 5.45764 11.5194 5.63574 11.4934C5.81508 11.4662 5.97353 11.3635 6.07179 11.2113L12.3902 1.49058C12.5253 1.29136 12.5364 1.03399 12.4197 0.823639C12.303 0.614525 12.0782 0.489551 11.8399 0.500687Z" fill="white"/>
</svg>
